<svg xmlns="http://www.w3.org/2000/svg" width="600" height="350" viewBox="0 0 600 350">
  <!-- Background -->
  <rect width="600" height="350" fill="#f8f9fa" rx="8" ry="8" />
  
  <!-- Header -->
  <rect x="10" y="10" width="580" height="50" fill="#ffffff" rx="6" ry="6" stroke="#e0e0e0" stroke-width="1" />
  <rect x="20" y="25" width="120" height="20" fill="#10b981" rx="4" ry="4" opacity="0.7" />
  <circle cx="560" cy="35" r="15" fill="#ffffff" stroke="#10b981" stroke-width="2" />
  
  <!-- Main Content Sections -->
  <rect x="10" y="70" width="280" height="130" fill="#ffffff" rx="6" ry="6" stroke="#e0e0e0" stroke-width="1" />
  <rect x="310" y="70" width="280" height="130" fill="#ffffff" rx="6" ry="6" stroke="#e0e0e0" stroke-width="1" />
  <rect x="10" y="210" width="580" height="130" fill="#ffffff" rx="6" ry="6" stroke="#e0e0e0" stroke-width="1" />
  
  <!-- Chart placeholders -->
  <rect x="30" y="90" width="240" height="90" fill="#f1f5f9" rx="4" ry="4" />
  <path d="M30,160 L90,120 L150,140 L210,100 L270,130" stroke="#10b981" stroke-width="2" fill="none" />
  
  <!-- Pie chart placeholder -->
  <circle cx="450" cy="135" r="50" fill="none" stroke="#e0e0e0" stroke-width="1" />
  <path d="M450,135 L450,85 A50,50 0 0,1 491,160 z" fill="#10b981" opacity="0.7" />
  <path d="M450,135 L491,160 A50,50 0 0,1 420,182 z" fill="#3b82f6" opacity="0.7" />
  <path d="M450,135 L420,182 A50,50 0 0,1 450,85 z" fill="#f59e0b" opacity="0.7" />
  
  <!-- Table placeholder -->
  <line x1="30" y1="230" x2="570" y2="230" stroke="#e0e0e0" stroke-width="1" />
  <line x1="30" y1="260" x2="570" y2="260" stroke="#e0e0e0" stroke-width="1" />
  <line x1="30" y1="290" x2="570" y2="290" stroke="#e0e0e0" stroke-width="1" />
  
  <!-- Table content placeholders -->
  <rect x="40" y="240" width="100" height="10" fill="#e0e0e0" rx="2" ry="2" />
  <rect x="180" y="240" width="60" height="10" fill="#e0e0e0" rx="2" ry="2" />
  <rect x="280" y="240" width="80" height="10" fill="#e0e0e0" rx="2" ry="2" />
  <rect x="400" y="240" width="40" height="10" fill="#e0e0e0" rx="2" ry="2" />
  <rect x="480" y="240" width="40" height="10" fill="#10b981" rx="2" ry="2" opacity="0.7" />
  
  <rect x="40" y="270" width="100" height="10" fill="#e0e0e0" rx="2" ry="2" />
  <rect x="180" y="270" width="60" height="10" fill="#e0e0e0" rx="2" ry="2" />
  <rect x="280" y="270" width="80" height="10" fill="#e0e0e0" rx="2" ry="2" />
  <rect x="400" y="270" width="40" height="10" fill="#e0e0e0" rx="2" ry="2" />
  <rect x="480" y="270" width="40" height="10" fill="#3b82f6" rx="2" ry="2" opacity="0.7" />
  
  <rect x="40" y="300" width="100" height="10" fill="#e0e0e0" rx="2" ry="2" />
  <rect x="180" y="300" width="60" height="10" fill="#e0e0e0" rx="2" ry="2" />
  <rect x="280" y="300" width="80" height="10" fill="#e0e0e0" rx="2" ry="2" />
  <rect x="400" y="300" width="40" height="10" fill="#e0e0e0" rx="2" ry="2" />
  <rect x="480" y="300" width="40" height="10" fill="#f59e0b" rx="2" ry="2" opacity="0.7" />
  
  <!-- EcoSolve Watermark -->
  <text x="270" y="330" font-family="Arial" font-size="12" text-anchor="middle" fill="#10b981">EcoSolve Dashboard</text>
</svg> 